<svg xmlns="http://www.w3.org/2000/svg" width="107" height="89" viewBox="0 0 107 89" fill="none">
  <path d="M21.2131 40.0706C24.9824 54.2485 37.8605 63.7799 52.0175 63.7799C53.7504 63.7799 55.5043 63.6282 57.2597 63.3358L58.0605 66.3468C58.158 66.7368 58.4721 67.0292 58.862 67.1267C58.9486 67.1483 59.0244 67.1592 59.1111 67.1592C59.4144 67.1592 59.7176 67.0292 59.9234 66.7909L65.3715 60.628C65.6097 60.3573 65.6964 59.9782 65.6097 59.6316C65.5123 59.285 65.2523 59.0034 64.9166 58.8842L57.1297 56.2306C56.7506 56.1006 56.3391 56.1873 56.0466 56.4689C55.7542 56.7397 55.635 57.1513 55.7434 57.5412L56.729 61.2454C41.7929 63.6391 27.2684 54.2919 23.3368 39.5291C19.1018 23.6724 28.5682 7.37161 44.4133 3.16915C60.2491 -1.0333 76.5491 8.42223 80.7523 24.2688C82.0087 29.002 82.0737 34.006 80.9581 38.7391L83.0702 39.2374C84.2724 34.1576 84.2074 28.7854 82.8535 23.7056C78.337 6.72247 60.8448 -3.43708 43.8501 1.06865C26.8561 5.58521 16.7081 23.0774 21.2139 40.0721L21.2131 40.0706ZM62.6529 60.4006L59.6202 63.834L58.3204 58.9276L62.6529 60.4006Z" fill="#9F7E41"/>
  <path d="M77.5458 42.2371C72.1736 42.2371 67.7979 46.6129 67.7979 51.9851C67.7979 57.3566 72.1736 61.7323 77.5458 61.7323C82.918 61.7323 87.2938 57.3566 87.2938 51.9851C87.2938 46.6129 82.918 42.2371 77.5458 42.2371ZM77.5458 59.5669C73.365 59.5669 69.9641 56.1659 69.9641 51.9851C69.9641 47.8036 73.3643 44.4026 77.5458 44.4026C81.7273 44.4026 85.1276 47.8036 85.1276 51.9851C85.1276 56.1659 81.7273 59.5669 77.5458 59.5669Z" fill="#9F7E41"/>
  <path d="M76.4623 51.5408L73.5264 54.476L75.0535 56.0032L78.3029 52.7539C78.5087 52.5481 78.617 52.2773 78.617 51.9849V47.6525H76.4508V51.5408H76.4623Z" fill="#9F7E41"/>
  <path d="M32.0547 30.3229C32.0547 41.0782 40.7954 49.8189 51.5506 49.8189C62.3059 49.8189 71.0466 41.0782 71.0466 30.3229C71.0466 19.5669 62.3059 10.827 51.5506 10.827C40.7954 10.827 32.0547 19.5669 32.0547 30.3229ZM34.2209 30.3229C34.2209 26.9537 35.2065 23.8134 36.8745 21.149L37.4377 21.6147C38.8999 22.817 39.5606 24.7774 39.1057 26.6295L38.6725 28.525C38.2501 30.3554 38.6941 32.2292 39.9072 33.6589C41.1095 35.0778 42.8424 35.8359 44.7162 35.7276L46.6983 35.6085C48.7237 35.5002 50.4459 37.0165 50.5975 39.0311C50.6841 40.4283 50.0018 41.7497 48.8104 42.4754C48.2363 42.8111 47.6081 42.9844 46.9474 42.9844L43.1674 43.0494C41.9001 43.0711 40.6654 42.9628 39.4956 42.757C36.2355 39.6051 34.2101 35.1969 34.2101 30.3222L34.2209 30.3229ZM51.5506 47.6526C48.323 47.6526 45.3119 46.7529 42.7233 45.2048H43.1999L46.9691 45.1398C47.9872 45.1398 49.0053 44.8582 49.926 44.3275C51.8214 43.1794 52.9045 41.089 52.7637 38.8686C52.5146 35.6735 49.8177 33.269 46.5792 33.4307L44.5862 33.5498C43.4165 33.6264 42.3117 33.1383 41.5535 32.2501C40.7845 31.3403 40.5029 30.1604 40.7737 29.0008L41.1961 27.1162C41.846 24.4842 40.8928 21.6573 38.7916 19.9359L38.1093 19.3727C40.6004 16.3183 44.1205 14.1304 48.128 13.3289L48.2255 13.4156C49.2761 14.2929 50.4242 14.9536 51.6373 15.376C52.4821 15.6793 53.0995 16.4591 53.2944 17.4339C53.4894 18.4304 53.1861 19.3835 52.4929 19.9901L51.594 20.8024C50.1101 22.1238 49.6227 24.3333 50.37 26.2937L50.8141 27.4635C51.7456 29.8572 54.2367 31.0919 56.4896 30.2579L62.2626 28.1567C62.9883 27.9076 63.7681 28.0592 64.4071 28.5683C64.8945 28.969 65.2303 29.5539 65.3603 30.1929C65.6852 31.9692 66.9199 33.3664 68.4904 33.908C66.8333 41.749 59.8689 47.6526 51.5398 47.6526H51.5506ZM68.8804 30.3229C68.8804 30.7886 68.8479 31.2428 68.8154 31.6985C68.1655 31.3302 67.6564 30.637 67.5048 29.7922C67.2774 28.6549 66.6816 27.6368 65.8043 26.9003C64.5804 25.9038 62.9991 25.6215 61.5585 26.1205L55.7639 28.221C54.6267 28.6434 53.3486 27.961 52.8504 26.6829L52.4063 25.5132C51.973 24.3868 52.233 23.1412 53.0562 22.4047L53.9551 21.5923C55.2115 20.4659 55.7748 18.7546 55.439 17.0108C55.1032 15.267 53.966 13.8914 52.3955 13.3174C52.1138 13.2199 51.8322 13.1008 51.5615 12.9708C61.1145 12.9708 68.8804 20.7482 68.8804 30.3005V30.3229Z" fill="#9F7E41"/>
  <mask id="mask0_615_19017" style="mask-type:luminance" maskUnits="userSpaceOnUse" x="0" y="67" width="107" height="22">
    <path d="M106.922 67.149H0V88.5334H106.922V67.149Z" fill="white"/>
  </mask>
  <g mask="url(#mask0_615_19017)">
    <path d="M4.75783 83.8825L4.21877 83.8647L3.71535 83.6909L3.48814 83.3078L3.52378 82.9781L3.5416 81.9713L3.50596 81.606L3.52378 80.1982L3.55942 79.8507L3.50596 77.2623L3.5416 76.7767L3.52378 76.4292L3.5416 76.046L3.50596 75.5604L3.5416 75.0035L3.35003 74.656L3.02035 74.4823L1.36752 74.4467L1.02003 74.4823L0.70817 74.3085L0.552242 73.9967L0.516602 73.4576L0.552242 72.5889L0.534422 72.2414L0.74381 71.8404L1.07349 71.6667L2.28972 71.738L2.82879 71.6845L3.85345 71.738L4.16531 71.6667L4.54845 71.7023L4.91376 71.6489L5.24344 71.6667L5.59093 71.738L6.99874 71.6667L7.32841 71.7023L7.69373 71.6489L8.0234 71.6845H9.10153L9.43121 71.9117L9.62278 72.2592L9.60496 73.9076L9.39557 74.2907L9.10153 74.4823L8.78968 74.4645L8.42436 74.5179L7.77838 74.4288L7.1012 74.4645L6.77153 74.6739L6.63342 75.1951L6.57996 76.7054L6.63342 77.0707L6.59778 79.8685L6.65124 80.2516L6.6156 80.5635L6.63342 81.2585L6.59778 81.6238L6.65124 82.2831L6.59778 83.1875L6.42403 83.6731L5.92061 83.8469L4.75783 83.8825Z" fill="#57402F"/>
    <path d="M15.7538 83.9181L15.4063 83.829H14.5554L14.0341 83.9003L13.3391 83.829L12.9916 83.8646L12.4526 83.8824L11.9491 83.8112L11.6195 83.8468H11.2898L10.9423 83.6909L10.7686 83.2231L10.822 81.6237L11.0136 81.3119L12.1585 80.9644L12.3501 80.4431L12.2966 75.1059L12.1407 74.6382L11.811 74.4288H11.4635L11.0804 74.2372L10.8888 73.8897L10.9245 73.56L10.8755 72.277L11.0492 71.8582L11.3967 71.6844H11.7932L12.1229 71.7379H13.5485L13.896 71.6666L14.2079 71.7023H16.3107L16.6225 71.8938L16.8319 72.2235L16.8141 73.9432L16.6403 74.2194L16.275 74.3619L15.9275 74.411L15.5489 74.5669L15.4241 74.9678L15.3573 76.7231L15.4241 77.975L15.3929 78.3581L15.4063 80.2694L15.3573 80.5991L15.5667 80.9956L15.981 81.1381H16.3463L16.7294 81.3297L16.9388 81.6594V83.379L16.7651 83.7087L16.4488 83.8824L15.7538 83.9181Z" fill="#57402F"/>
    <path d="M19.6321 83.9001L19.2846 83.6729L19.093 83.3076L19.1108 79.4673L19.0752 79.1377L19.1242 77.3824L19.093 77.0349L19.1108 74.2549L19.0752 73.943L19.1242 73.2659L19.0752 72.2056L19.2668 71.8403L19.6454 71.6665L20.1355 71.8046L20.532 72.1031L20.9864 72.5709L21.2626 72.8159L21.7171 73.3505L21.9576 73.5599L23.5392 75.3152L23.9223 75.6627L24.2342 76.0637L24.4792 76.3042L24.6841 76.6027L25.0495 76.7408L25.3658 76.5314L26.4216 75.4533L26.6488 75.1593L28.1769 73.5956L28.4219 73.2837L28.6313 73.0921L28.8541 72.8159L29.5847 72.0496L29.95 71.8224L30.4535 71.6665L30.8188 71.8581L31.0282 72.2234L30.9925 72.5531L31.0103 73.2659L30.9925 73.5599L31.0282 74.3084L31.0103 74.638L31.0282 76.3577L30.9925 76.7408L31.0282 81.9533L30.9925 82.3008L31.046 83.2052L30.8366 83.7086L30.4713 83.9001L28.3685 83.8289L28.0032 83.7264L27.8651 83.3254V83.067L27.8294 82.283L27.8651 81.9711L27.8294 81.3296L27.8651 80.6479L27.8116 79.9529L27.8472 78.9996L27.7091 78.7367L27.4819 78.8436L26.7691 79.5743L26.5285 79.748L26.0429 80.3183L25.8335 80.5276L25.5885 80.7905L25.241 81.0489L24.8579 81.0311L24.497 80.7727L24.0248 80.3183L23.802 80.042L23.0892 79.3292L22.8798 79.0708L22.5992 78.8436L22.4254 78.7724L22.2695 78.9283V79.6054L22.3051 79.9886L22.2695 80.6168L22.2873 80.9821L22.2383 81.5167L22.2873 83.3433L22.0779 83.6551L21.5923 83.8645L21.0354 83.8289L20.6567 83.8823L19.9796 83.8467L19.6321 83.9001Z" fill="#57402F"/>
    <path d="M38.3942 83.8998L38.0468 83.8642L37.6993 83.8998L37.2983 83.882L36.9686 83.8107L36.2558 83.8642L35.944 83.8464L35.5608 83.882L34.3134 83.8642L33.7922 83.637L33.6496 83.1692L33.6184 82.7861L33.6674 81.5877L33.6184 81.2402L33.6496 80.9105L33.6674 78.0949L33.6184 77.783L33.6362 76.3574L33.6674 76.0277L33.6184 75.6624L33.6496 73.9606L33.6006 73.5774L33.6496 72.8646L33.6184 72.2053L33.81 71.8399L34.1708 71.7018L34.5183 71.7197L34.8658 71.684L35.1821 71.7197L35.5118 71.6484L35.8593 71.7018L37.2849 71.6662L37.6324 71.7018L37.9265 71.684L38.274 71.7197L38.6571 71.684L40.0649 71.6662L40.3768 71.7375H40.7421L41.0896 71.8756L41.2455 72.2053L41.2811 73.2477L41.2633 73.5952L41.2811 73.9427L41.1074 74.2546L40.7421 74.464L40.4124 74.4818L37.9265 74.4462L37.5968 74.5174L37.2671 74.4996L36.884 74.6377L36.728 74.9674V75.5065L36.8662 76.0455L37.2315 76.2015L38.2383 76.1658L38.969 76.2193L39.3343 76.1836H40.3589L40.7599 76.4109L40.9336 76.8965L40.8802 78.4602L40.7599 78.8077L40.4124 78.9458L40.0114 78.928L39.6639 78.9636L38.9511 78.9458L38.2918 78.9814L37.7349 78.928L37.2137 78.9458L36.9018 79.1374L36.7459 79.5027V80.5986L36.884 80.9105L37.2493 81.0842L37.6324 81.0486L37.9621 81.102L38.3408 81.0842L38.6883 81.1199L39.263 81.0486L40.1495 81.0664L40.4792 81.1199L40.8802 81.0842L41.2455 81.2402L41.4371 81.5877V83.3429L41.2455 83.7083L40.8802 83.8642L38.3942 83.8998Z" fill="#57402F"/>
    <path d="M51.5508 83.8825L51.0117 83.8647L50.5083 83.6909L50.2811 83.3078L50.3167 82.9781L50.3346 81.9713L50.2989 81.606L50.3167 80.1982L50.3524 79.8507L50.2989 77.2623L50.3346 76.7767L50.3167 76.4292L50.3346 76.046L50.2989 75.5604L50.3346 75.0035L50.143 74.656L49.8133 74.4823L48.1605 74.4467L47.813 74.4823L47.5011 74.3085L47.3452 73.9967L47.3096 73.4576L47.3452 72.5889L47.3274 72.2414L47.5368 71.8404L47.8665 71.6667L49.0827 71.738L49.6218 71.6845L50.6464 71.738L50.9583 71.6667L51.3414 71.7023L51.7067 71.6489L52.0364 71.6667L52.3839 71.738L53.7917 71.6667L54.1214 71.7023L54.4867 71.6489L54.8164 71.6845H55.8945L56.2242 71.9117L56.4157 72.2592L56.3979 73.9076L56.1885 74.2907L55.8945 74.4823L55.5826 74.4645L55.2173 74.5179L54.5713 74.4288L53.8942 74.4645L53.5645 74.6739L53.4264 75.1951L53.3729 76.7054L53.4264 77.0707L53.3907 79.8685L53.4442 80.2516L53.4086 80.5635L53.4264 81.2585L53.3907 81.6238L53.4442 82.2831L53.3907 83.1875L53.217 83.6731L52.7136 83.8469L51.5508 83.8825Z" fill="#9F7E41"/>
    <path d="M58.0283 83.1336V80.563L57.9971 80.2155L58.0149 78.8077L58.0461 78.478L58.0149 78.1483V77.8008L57.9971 77.4177L58.0461 76.7227L58.0149 76.3752L57.9971 72.3968L58.202 71.9112L58.5183 71.7375L59.543 71.6484L59.9261 71.6662L60.2736 71.7375H60.6211L60.933 71.6484H61.2805L61.628 71.7197H62.6704L63.1739 71.684L63.7308 71.7018L64.7198 71.929L65.3791 72.1518L65.9895 72.4815L66.9785 73.524L67.1701 73.8046L67.3082 74.0987L67.62 75.0877L67.6735 75.4352L67.7091 76.5311L67.4819 77.538L66.8048 78.7542L66.5597 78.9636L66.3192 79.2265L66.1632 79.6051L66.181 80.0239L66.386 80.2868L66.9429 81.1867L67.0988 81.503L67.6913 82.3851L67.8294 82.7192L68.0388 82.9598L68.2304 83.3429L68.1235 83.7261L67.7938 83.882L67.2235 83.8998L66.8894 83.8642L65.5172 83.882L64.9292 83.7261L64.546 83.4142L64.3545 83.1157L64.2164 82.7682L64.0248 82.5099L63.6951 81.8817L63.3298 81.3604L63.1917 81.0486L62.9823 80.7011L62.6348 80.4071L61.628 80.2689L61.2983 80.4605L61.1424 80.808L61.1067 81.9173L61.1557 82.2826L61.1245 82.5945V83.187L60.9686 83.6904L60.4117 83.8642H59.8905L59.6098 83.8998L59.0574 83.8464L58.7099 83.8998L58.202 83.6726L58.0283 83.1336ZM61.628 77.489L62.0111 77.4533L62.8442 77.489L63.1739 77.4712L63.6773 77.3464L63.9891 77.2083L64.1807 77.0524L64.3723 76.794L64.5282 76.4465L64.5817 75.9252L64.5104 75.4708L64.4079 75.1946L63.9713 74.6556L63.6417 74.5665L63.1917 74.5353L62.7061 74.4283L62.0111 74.4996L61.6636 74.4818L61.2983 74.6199L61.1424 74.9496L61.1067 75.6802L61.1424 75.9743V77.0167L61.2805 77.2974L61.628 77.489Z" fill="#9F7E41"/>
    <path d="M79.0366 83.8821L78.6713 83.8465L78.2703 83.6727L77.9228 83.4143L77.8204 83.098L77.6645 82.7684L77.3348 82.4921L76.9516 82.3006L76.5685 82.354L76.2566 82.3184L74.5548 82.3362L74.243 82.2828L73.5123 82.354L73.1826 82.3006L72.8173 82.4921L72.4877 82.8218L72.1713 83.3965L71.8417 83.7084L71.4452 83.8287L70.4695 83.8643L70.122 83.8287L69.4448 83.8643L69.0973 83.7618L69.0127 83.3252L69.1152 82.9777L69.4627 82.2828L69.5518 81.9709L69.7389 81.7259L70.0017 81.0309L70.3136 80.474L70.4339 80.1265L70.6076 79.8681L70.7145 79.485L72.4877 75.7694L72.5901 75.4531L72.7817 75.1234L72.8663 74.776L73.0579 74.5176L73.7529 72.9182L73.9088 72.6732L74.0336 72.3257L74.1895 72.0316L74.5013 71.7376L75.0582 71.546L75.6329 71.7198L75.927 72.0316L76.2566 72.642L76.3591 72.9538L76.5507 73.2657L76.6576 73.6132L77.8026 76.0278L77.9228 76.3931L78.2882 77.0347L78.3951 77.3153L78.551 77.5737L78.6535 77.9569L78.8272 78.2866L79.001 78.5494L79.6603 80.1265L80.0078 80.7547L80.2529 81.3962L80.7206 82.3006L80.9835 82.9421L81.1038 83.3431L81.0503 83.7618L80.5647 83.8465L80.0256 83.8643L79.696 83.8287L79.0366 83.8821ZM75.0939 79.5562L75.7889 79.5384L76.0473 79.4003L76.1185 79.084L75.2988 77.1728L75.0582 77.0347L74.8667 77.1906L74.0514 79.0706L74.0692 79.4003L74.3454 79.5206L74.7464 79.485L75.0939 79.5562Z" fill="#9F7E41"/>
    <path d="M87.4453 83.9848L87.1156 83.967L86.8037 83.9002L86.4562 83.7754L86.1444 83.7086L85.3603 83.3789L84.6118 82.978L83.8322 82.3008L83.1194 81.5345L82.3709 80.0243L82.1304 79.0352L82.0234 77.7655L82.1972 76.2731L82.3709 75.5603L82.8075 74.5846L83.1372 74.0812L83.605 73.4931L84.3534 72.816L84.8569 72.4328L86.1444 71.8225L87.8284 71.4928L88.9065 71.5106L89.254 71.5641L89.5837 71.5819L91.2499 72.1343L92.4305 72.8828L92.9206 73.3862L93.1121 73.7159L93.3527 74.0144L93.5086 74.2906L93.7002 74.5668L93.8071 74.9321L93.9274 75.2484L94.0299 75.6271L93.9096 75.9746L93.6155 76.1172L93.0943 76.1662L92.6042 76.1172L92.2567 76.1305L91.8959 76.1172L91.5796 76.1484L91.1831 75.9568L90.8534 75.6271L90.6618 75.3687L90.1584 74.8653L89.9134 74.6737L89.6015 74.5534L89.0625 74.3931L88.314 74.3619L87.1512 74.5178L86.6834 74.7762L86.2647 75.1059L85.8459 75.5959L85.6721 75.9256L85.4138 76.5493L85.2935 77.2443V78.3046L85.3425 78.6877L85.4316 78.9996L85.5519 79.2446L85.6721 79.5921L86.0553 80.198L86.5587 80.648L87.1691 80.9643L87.7928 81.187L88.2962 81.2405L89.2184 81.187L89.8243 80.8574L90.0871 80.7549L90.3633 80.5099L90.7643 80.0599L90.938 79.7302L91.2143 79.4496L91.6152 79.2446L91.9627 79.258L92.3102 79.2446L92.6577 79.2936L93.6334 79.2268L93.9809 79.4496L94.0833 79.7659L93.6334 81.0846L93.268 81.7083L92.8671 82.2295L92.3815 82.7196L91.5306 83.3255L91.2321 83.4636L90.8668 83.5883L90.5549 83.7621L89.5302 83.967L88.314 84.0561L87.4453 83.9848Z" fill="#9F7E41"/>
    <path d="M96.4651 83.8998L96.1488 83.6904L95.975 83.1514L95.9438 82.2648L95.975 81.9173L95.9438 81.552L95.9572 81.2758L95.926 80.563L95.975 79.8502L95.9438 79.5383L95.9572 78.8611L95.9082 78.478L95.975 77.7652L95.926 77.4712L95.9572 75.3327L95.9082 74.9852L95.9572 74.6377L95.926 72.5171L95.9572 72.2231L96.1176 71.8934L96.4651 71.6662L96.8438 71.6484L97.1913 71.684L97.5209 71.6662L98.3897 71.7553L98.8976 71.9112L99.1203 72.1874L99.0847 72.9003L99.1025 73.4393L99.0713 73.8581L99.1025 74.1699L99.1203 75.4218L99.1025 75.7515L99.1916 76.1168L99.4856 76.3218H99.8688L100.216 76.2193L100.599 76.1658L100.911 76.0277L101.517 75.5956L101.918 75.0387L102.025 74.6734L102.127 74.4105L102.266 73.2834L102.248 72.9359L102.301 72.6062V72.2231L102.439 71.8934L102.805 71.684L103.326 71.6662L103.847 71.7375L104.422 71.6662L104.943 71.7197L105.326 71.8756L105.482 72.2231L105.429 73.3012L105.464 73.6487L105.34 74.758L105.046 75.7693L104.925 76.0812L104.662 76.5311L104.11 77.244L103.571 77.6939L103.344 78.0592L103.415 78.4602L103.985 79.3824L104.123 79.6764L104.315 80.0061L104.507 80.2511L105.046 81.1377L105.273 81.4139L106.351 83.3786L106.262 83.7617L105.896 83.8464L105.549 83.8286L105.237 83.8642L103.482 83.882L103.081 83.7083L102.751 83.3786L102.577 83.1514L102.404 82.8217L102.199 82.5589L101.865 81.9173L101.709 81.6768L101.588 81.3783L100.876 80.2155L100.755 79.8502L100.582 79.574L100.181 79.2755L99.7128 79.2443L99.2762 79.4314L99.0847 79.7299L99.1381 81.552L99.0847 81.9173L99.1203 83.3073L98.9287 83.6904L98.5812 83.8286L98.0288 83.882L97.5388 83.8464L96.4651 83.8998Z" fill="#9F7E41"/>
  </g>
</svg>