<svg xmlns="http://www.w3.org/2000/svg" width="42" height="42" viewBox="0 0 42 42" fill="none">
  <path d="M20.7979 5.19952C21.8827 5.19954 22.9296 5.37828 23.9082 5.71027C23.1121 6.94492 22.621 8.39481 22.542 9.95343L22.5312 10.3997L22.542 10.845C22.7719 15.3801 26.4886 18.9921 31.0645 19.0609C31.3759 20.5705 31.9373 22.0204 32.7285 23.3499C32.7413 23.3713 32.7534 23.3936 32.7793 23.4368L33.7812 25.1068C34.6903 26.6219 35.145 27.3794 35.0469 28.0013C34.9815 28.415 34.7685 28.791 34.4473 29.0599C33.9644 29.4639 33.0812 29.4642 31.3145 29.4642H10.2812C8.51419 29.4642 7.63028 29.464 7.14746 29.0599C6.82635 28.791 6.61316 28.415 6.54785 28.0013C6.44973 27.3794 6.90451 26.6217 7.81348 25.1068L8.81543 23.4368C8.84135 23.3936 8.85444 23.3713 8.86719 23.3499C9.86963 21.6654 10.5041 19.7876 10.7275 17.8401C10.7304 17.8154 10.7327 17.7904 10.7383 17.7405L11.1748 13.8128C11.7196 8.90946 15.8643 5.19952 20.7979 5.19952ZM28.2051 8.64777C29.3949 10.06 30.1916 11.8225 30.416 13.7767C28.8779 13.4224 27.7308 12.0453 27.7305 10.3997C27.7305 9.76069 27.9034 9.16184 28.2051 8.64777Z" fill="white"/>
  <path d="M15.5989 29.4641C15.5989 30.147 15.7334 30.8231 15.9947 31.4539C16.256 32.0848 16.639 32.658 17.1219 33.1408C17.6047 33.6236 18.1779 34.0066 18.8087 34.2679C19.4395 34.5292 20.1157 34.6637 20.7985 34.6637C21.4813 34.6637 22.1574 34.5292 22.7883 34.2679C23.4191 34.0066 23.9923 33.6236 24.4751 33.1408C24.958 32.658 25.341 32.0848 25.6023 31.4539C25.8636 30.8231 25.998 30.147 25.998 29.4641L20.7985 29.4641H15.5989Z" fill="white"/>
  <circle cx="31.1968" cy="10.3991" r="4.33296" fill="white" stroke="white" stroke-width="1.73318"/>
</svg>