<svg xmlns="http://www.w3.org/2000/svg" width="26" height="31" viewBox="0 0 26 31" fill="none">
  <path d="M14.375 15.1025C18.7613 15.1025 22.7446 17.6613 24.5684 21.6504L25.4697 23.6211C25.747 24.2279 25.8906 24.8876 25.8906 25.5547C25.8905 28.1231 23.8078 30.2051 21.2393 30.2051H4.65039C2.08211 30.2048 0.000171152 28.123 0 25.5547C0 24.8875 0.143572 24.2279 0.420898 23.6211L1.32129 21.6504C3.14495 17.6612 7.12841 15.1027 11.5146 15.1025H14.375ZM12.9453 0C16.52 0 19.418 2.89794 19.418 6.47266C19.4179 10.0473 16.52 12.9453 12.9453 12.9453C9.37062 12.9453 6.47269 10.0473 6.47266 6.47266C6.47266 2.89794 9.3706 8.50444e-06 12.9453 0Z" fill="white"/>
</svg>